<?xml version="1.0" encoding="UTF-8" standalone="no"?>
<!DOCTYPE svg PUBLIC "-//W3C//DTD SVG 1.1//EN"
 "http://www.w3.org/Graphics/SVG/1.1/DTD/svg11.dtd">
<!-- Generated by graphviz version 2.43.0 (0)
 -->
<!-- Title: TravelAgencyExact Pages: 1 -->
<svg width="1089pt" height="615pt"
 viewBox="0.00 0.00 1088.95 615.00" xmlns="http://www.w3.org/2000/svg" xmlns:xlink="http://www.w3.org/1999/xlink">
<g id="graph0" class="graph" transform="scale(1 1) rotate(0) translate(4 611)">
<title>TravelAgencyExact</title>
<polygon fill="white" stroke="transparent" points="-4,4 -4,-611 1084.95,-611 1084.95,4 -4,4"/>
<g id="clust1" class="cluster">
<title>cluster_external</title>
<polygon fill="none" stroke="black" points="902.95,-264 902.95,-515 1072.95,-515 1072.95,-264 902.95,-264"/>
<text text-anchor="middle" x="987.95" y="-499.8" font-family="Times,serif" font-size="14.00">External Systems</text>
</g>
<g id="clust2" class="cluster">
<title>cluster_system</title>
<polygon fill="none" stroke="black" points="173,-8 173,-599 845.95,-599 845.95,-8 173,-8"/>
<text text-anchor="middle" x="509.48" y="-583.8" font-family="Times,serif" font-size="14.00">Travel Agency System</text>
</g>
<!-- customer -->
<g id="node1" class="node">
<title>customer</title>
<text text-anchor="middle" x="54" y="-423.8" font-family="Times,serif" font-size="14.00">Customer</text>
<text text-anchor="middle" x="54" y="-408.8" font-family="Times,serif" font-size="14.00">(Traveler)</text>
</g>
<!-- search -->
<g id="node6" class="node">
<title>search</title>
<ellipse fill="#dbeafe" stroke="black" cx="327.24" cy="-550" rx="78.79" ry="18"/>
<text text-anchor="middle" x="327.24" y="-546.3" font-family="Times,serif" font-size="14.00">Search Flights</text>
</g>
<!-- customer&#45;&gt;search -->
<g id="edge1" class="edge">
<title>customer&#45;&gt;search</title>
<path fill="none" stroke="black" d="M76.06,-439.25C98.54,-458.87 135.95,-488.9 173,-507 199.09,-519.75 229.59,-529.27 256.47,-536.08"/>
<polygon fill="black" stroke="black" points="255.65,-539.48 266.2,-538.46 257.32,-532.68 255.65,-539.48"/>
</g>
<!-- bookflight -->
<g id="node7" class="node">
<title>bookflight</title>
<ellipse fill="#dbeafe" stroke="black" cx="327.24" cy="-464" rx="95.58" ry="18"/>
<text text-anchor="middle" x="327.24" y="-460.3" font-family="Times,serif" font-size="14.00">Book Flight Ticket</text>
</g>
<!-- customer&#45;&gt;bookflight -->
<g id="edge2" class="edge">
<title>customer&#45;&gt;bookflight</title>
<path fill="none" stroke="black" d="M97.68,-426.92C136.82,-433.27 195.85,-442.85 244.12,-450.68"/>
<polygon fill="black" stroke="black" points="243.81,-454.18 254.25,-452.32 244.93,-447.27 243.81,-454.18"/>
</g>
<!-- cancelflight -->
<g id="node8" class="node">
<title>cancelflight</title>
<ellipse fill="#dbeafe" stroke="black" cx="327.24" cy="-378" rx="103.98" ry="18"/>
<text text-anchor="middle" x="327.24" y="-374.3" font-family="Times,serif" font-size="14.00">Cancel Flight Ticket</text>
</g>
<!-- customer&#45;&gt;cancelflight -->
<g id="edge3" class="edge">
<title>customer&#45;&gt;cancelflight</title>
<path fill="none" stroke="black" d="M97.68,-413.39C135.49,-407.54 191.88,-398.8 239.19,-391.48"/>
<polygon fill="black" stroke="black" points="239.79,-394.93 249.14,-389.94 238.72,-388.01 239.79,-394.93"/>
</g>
<!-- address -->
<g id="node9" class="node">
<title>address</title>
<ellipse fill="#d9f99d" stroke="black" cx="327.24" cy="-292" rx="87.18" ry="18"/>
<text text-anchor="middle" x="327.24" y="-288.3" font-family="Times,serif" font-size="14.00">Provide Address</text>
</g>
<!-- customer&#45;&gt;address -->
<g id="edge4" class="edge">
<title>customer&#45;&gt;address</title>
<path fill="none" stroke="black" d="M76.56,-400.86C99.15,-381.71 136.38,-352.64 173,-335 198.27,-322.83 227.6,-313.54 253.8,-306.78"/>
<polygon fill="black" stroke="black" points="254.82,-310.13 263.67,-304.3 253.12,-303.34 254.82,-310.13"/>
</g>
<!-- agent -->
<g id="node2" class="node">
<title>agent</title>
<text text-anchor="middle" x="54" y="-116.3" font-family="Times,serif" font-size="14.00">Travel Agent</text>
</g>
<!-- bookhotel -->
<g id="node10" class="node">
<title>bookhotel</title>
<ellipse fill="#fef3c7" stroke="black" cx="327.24" cy="-206" rx="61.99" ry="18"/>
<text text-anchor="middle" x="327.24" y="-202.3" font-family="Times,serif" font-size="14.00">Book Hotel</text>
</g>
<!-- agent&#45;&gt;bookhotel -->
<g id="edge5" class="edge">
<title>agent&#45;&gt;bookhotel</title>
<path fill="none" stroke="black" d="M93.95,-138.09C109.34,-144.85 127.31,-152.27 144,-158 184.59,-171.93 231.43,-184.18 267.46,-192.83"/>
<polygon fill="black" stroke="black" points="266.78,-196.26 277.32,-195.17 268.39,-189.45 266.78,-196.26"/>
</g>
<!-- cancelhotel -->
<g id="node11" class="node">
<title>cancelhotel</title>
<ellipse fill="#fef3c7" stroke="black" cx="327.24" cy="-120" rx="110.48" ry="18"/>
<text text-anchor="middle" x="327.24" y="-116.3" font-family="Times,serif" font-size="14.00">Cancel Hotel Booking</text>
</g>
<!-- agent&#45;&gt;cancelhotel -->
<g id="edge6" class="edge">
<title>agent&#45;&gt;cancelhotel</title>
<path fill="none" stroke="black" d="M108.26,-120C136.42,-120 172.19,-120 206.58,-120"/>
<polygon fill="black" stroke="black" points="206.71,-123.5 216.71,-120 206.71,-116.5 206.71,-123.5"/>
</g>
<!-- view -->
<g id="node18" class="node">
<title>view</title>
<ellipse fill="#f3e8ff" stroke="black" cx="327.24" cy="-34" rx="146.47" ry="18"/>
<text text-anchor="middle" x="327.24" y="-30.3" font-family="Times,serif" font-size="14.00">View Booking / Ticket Details</text>
</g>
<!-- agent&#45;&gt;view -->
<g id="edge7" class="edge">
<title>agent&#45;&gt;view</title>
<path fill="none" stroke="black" d="M102.09,-101.91C123.58,-93.9 149.44,-84.59 173,-77 199.35,-68.51 228.55,-60.08 254.33,-52.97"/>
<polygon fill="black" stroke="black" points="255.32,-56.33 264.03,-50.3 253.46,-49.57 255.32,-56.33"/>
</g>
<!-- payment -->
<g id="node3" class="node">
<title>payment</title>
<path fill="#f8d7da" stroke="black" d="M1048.95,-484C1048.95,-484 926.95,-484 926.95,-484 920.95,-484 914.95,-478 914.95,-472 914.95,-472 914.95,-460 914.95,-460 914.95,-454 920.95,-448 926.95,-448 926.95,-448 1048.95,-448 1048.95,-448 1054.95,-448 1060.95,-454 1060.95,-460 1060.95,-460 1060.95,-472 1060.95,-472 1060.95,-478 1054.95,-484 1048.95,-484"/>
<text text-anchor="middle" x="987.95" y="-462.3" font-family="Times,serif" font-size="14.00">Payment Gateway</text>
</g>
<!-- airline -->
<g id="node4" class="node">
<title>airline</title>
<path fill="#f8d7da" stroke="black" d="M1052.95,-398C1052.95,-398 922.95,-398 922.95,-398 916.95,-398 910.95,-392 910.95,-386 910.95,-386 910.95,-372 910.95,-372 910.95,-366 916.95,-360 922.95,-360 922.95,-360 1052.95,-360 1052.95,-360 1058.95,-360 1064.95,-366 1064.95,-372 1064.95,-372 1064.95,-386 1064.95,-386 1064.95,-392 1058.95,-398 1052.95,-398"/>
<text text-anchor="middle" x="987.95" y="-382.8" font-family="Times,serif" font-size="14.00">Airline Reservation</text>
<text text-anchor="middle" x="987.95" y="-367.8" font-family="Times,serif" font-size="14.00">System</text>
</g>
<!-- hotelres -->
<g id="node5" class="node">
<title>hotelres</title>
<path fill="#f8d7da" stroke="black" d="M1048.95,-310C1048.95,-310 926.95,-310 926.95,-310 920.95,-310 914.95,-304 914.95,-298 914.95,-298 914.95,-284 914.95,-284 914.95,-278 920.95,-272 926.95,-272 926.95,-272 1048.95,-272 1048.95,-272 1054.95,-272 1060.95,-278 1060.95,-284 1060.95,-284 1060.95,-298 1060.95,-298 1060.95,-304 1054.95,-310 1048.95,-310"/>
<text text-anchor="middle" x="987.95" y="-294.8" font-family="Times,serif" font-size="14.00">Hotel Reservation</text>
<text text-anchor="middle" x="987.95" y="-279.8" font-family="Times,serif" font-size="14.00">System</text>
</g>
<!-- details -->
<g id="node12" class="node">
<title>details</title>
<ellipse fill="#dbeafe" stroke="black" cx="717.71" cy="-550" rx="120.48" ry="18"/>
<text text-anchor="middle" x="717.71" y="-546.3" font-family="Times,serif" font-size="14.00">Provide Journey Details</text>
</g>
<!-- bookflight&#45;&gt;details -->
<g id="edge8" class="edge">
<title>bookflight&#45;&gt;details</title>
<path fill="none" stroke="black" stroke-dasharray="5,2" d="M389.79,-477.63C457.43,-492.6 566.17,-516.67 639.48,-532.9"/>
<polygon fill="black" stroke="black" points="639.06,-536.39 649.58,-535.14 640.57,-529.56 639.06,-536.39"/>
<text text-anchor="middle" x="535.47" y="-517.8" font-family="Times,serif" font-size="14.00">include</text>
</g>
<!-- paymentuc -->
<g id="node13" class="node">
<title>paymentuc</title>
<ellipse fill="#dbeafe" stroke="black" cx="717.71" cy="-464" rx="79.09" ry="18"/>
<text text-anchor="middle" x="717.71" y="-460.3" font-family="Times,serif" font-size="14.00">Make Payment</text>
</g>
<!-- bookflight&#45;&gt;paymentuc -->
<g id="edge9" class="edge">
<title>bookflight&#45;&gt;paymentuc</title>
<path fill="none" stroke="black" stroke-dasharray="5,2" d="M423.27,-464C485.83,-464 567.15,-464 628.32,-464"/>
<polygon fill="black" stroke="black" points="628.34,-467.5 638.34,-464 628.34,-460.5 628.34,-467.5"/>
<text text-anchor="middle" x="535.47" y="-467.8" font-family="Times,serif" font-size="14.00">include</text>
</g>
<!-- refund -->
<g id="node14" class="node">
<title>refund</title>
<ellipse fill="#dbeafe" stroke="black" cx="717.71" cy="-378" rx="83.39" ry="18"/>
<text text-anchor="middle" x="717.71" y="-374.3" font-family="Times,serif" font-size="14.00">Process Refund</text>
</g>
<!-- cancelflight&#45;&gt;refund -->
<g id="edge10" class="edge">
<title>cancelflight&#45;&gt;refund</title>
<path fill="none" stroke="black" stroke-dasharray="5,2" d="M431.32,-378C491.23,-378 566.09,-378 624.11,-378"/>
<polygon fill="black" stroke="black" points="624.37,-381.5 634.37,-378 624.37,-374.5 624.37,-381.5"/>
<text text-anchor="middle" x="535.47" y="-381.8" font-family="Times,serif" font-size="14.00">include</text>
</g>
<!-- hoteldetails -->
<g id="node15" class="node">
<title>hoteldetails</title>
<ellipse fill="#fef3c7" stroke="black" cx="717.71" cy="-292" rx="110.48" ry="18"/>
<text text-anchor="middle" x="717.71" y="-288.3" font-family="Times,serif" font-size="14.00">Provide Hotel Details</text>
</g>
<!-- bookhotel&#45;&gt;hoteldetails -->
<g id="edge11" class="edge">
<title>bookhotel&#45;&gt;hoteldetails</title>
<path fill="none" stroke="black" stroke-dasharray="5,2" d="M377.04,-216.8C443.59,-231.54 563.41,-258.06 641.49,-275.35"/>
<polygon fill="black" stroke="black" points="640.75,-278.77 651.27,-277.51 642.26,-271.93 640.75,-278.77"/>
<text text-anchor="middle" x="535.47" y="-259.8" font-family="Times,serif" font-size="14.00">include</text>
</g>
<!-- paymenthotel -->
<g id="node16" class="node">
<title>paymenthotel</title>
<ellipse fill="#fef3c7" stroke="black" cx="717.71" cy="-206" rx="79.09" ry="18"/>
<text text-anchor="middle" x="717.71" y="-202.3" font-family="Times,serif" font-size="14.00">Make Payment</text>
</g>
<!-- bookhotel&#45;&gt;paymenthotel -->
<g id="edge12" class="edge">
<title>bookhotel&#45;&gt;paymenthotel</title>
<path fill="none" stroke="black" stroke-dasharray="5,2" d="M389.36,-206C453.55,-206 555.09,-206 628.06,-206"/>
<polygon fill="black" stroke="black" points="628.16,-209.5 638.16,-206 628.16,-202.5 628.16,-209.5"/>
<text text-anchor="middle" x="535.47" y="-209.8" font-family="Times,serif" font-size="14.00">include</text>
</g>
<!-- refundhotel -->
<g id="node17" class="node">
<title>refundhotel</title>
<ellipse fill="#fef3c7" stroke="black" cx="717.71" cy="-120" rx="83.39" ry="18"/>
<text text-anchor="middle" x="717.71" y="-116.3" font-family="Times,serif" font-size="14.00">Process Refund</text>
</g>
<!-- cancelhotel&#45;&gt;refundhotel -->
<g id="edge13" class="edge">
<title>cancelhotel&#45;&gt;refundhotel</title>
<path fill="none" stroke="black" stroke-dasharray="5,2" d="M437.74,-120C496.47,-120 568.05,-120 624,-120"/>
<polygon fill="black" stroke="black" points="624.25,-123.5 634.25,-120 624.25,-116.5 624.25,-123.5"/>
<text text-anchor="middle" x="535.47" y="-123.8" font-family="Times,serif" font-size="14.00">include</text>
</g>
<!-- details&#45;&gt;payment -->
<g id="edge14" class="edge">
<title>details&#45;&gt;payment</title>
<path fill="none" stroke="black" stroke-dasharray="5,2" d="M770.43,-533.8C812.93,-520.5 873.45,-501.54 919.7,-487.06"/>
<polygon fill="black" stroke="black" points="920.85,-490.37 929.35,-484.04 918.76,-483.69 920.85,-490.37"/>
</g>
<!-- paymentuc&#45;&gt;airline -->
<g id="edge15" class="edge">
<title>paymentuc&#45;&gt;airline</title>
<path fill="none" stroke="black" stroke-dasharray="5,2" d="M766.31,-449.66C797.31,-440.25 838.59,-427.59 874.95,-416 889.68,-411.31 905.45,-406.16 920.38,-401.25"/>
<polygon fill="black" stroke="black" points="921.65,-404.51 930.05,-398.05 919.46,-397.87 921.65,-404.51"/>
</g>
<!-- refund&#45;&gt;airline -->
<g id="edge16" class="edge">
<title>refund&#45;&gt;airline</title>
<path fill="none" stroke="black" stroke-dasharray="5,2" d="M801.02,-378.31C832.56,-378.42 868.63,-378.56 900.54,-378.68"/>
<polygon fill="black" stroke="black" points="900.74,-382.18 910.75,-378.72 900.76,-375.18 900.74,-382.18"/>
</g>
<!-- hoteldetails&#45;&gt;hotelres -->
<g id="edge17" class="edge">
<title>hoteldetails&#45;&gt;hotelres</title>
<path fill="none" stroke="black" stroke-dasharray="5,2" d="M828.2,-291.59C853.68,-291.5 880.39,-291.4 904.47,-291.31"/>
<polygon fill="black" stroke="black" points="904.64,-294.81 914.62,-291.27 904.61,-287.81 904.64,-294.81"/>
</g>
<!-- paymenthotel&#45;&gt;hotelres -->
<g id="edge18" class="edge">
<title>paymenthotel&#45;&gt;hotelres</title>
<path fill="none" stroke="black" stroke-dasharray="5,2" d="M764.83,-220.61C806.73,-233.89 869.15,-253.67 917.16,-268.88"/>
<polygon fill="black" stroke="black" points="916.27,-272.27 926.86,-271.96 918.39,-265.6 916.27,-272.27"/>
</g>
<!-- refundhotel&#45;&gt;hotelres -->
<g id="edge19" class="edge">
<title>refundhotel&#45;&gt;hotelres</title>
<path fill="none" stroke="black" stroke-dasharray="5,2" d="M774.09,-133.32C797.24,-140.23 823.84,-150 845.95,-163 892.84,-190.57 937.7,-235.57 963.77,-264.21"/>
<polygon fill="black" stroke="black" points="961.33,-266.73 970.61,-271.83 966.54,-262.05 961.33,-266.73"/>
</g>
</g>
</svg>
